<?xml version="1.0" encoding="UTF-8" standalone="no"?>
<svg
   xmlns:dc="http://purl.org/dc/elements/1.1/"
   xmlns:cc="http://creativecommons.org/ns#"
   xmlns:rdf="http://www.w3.org/1999/02/22-rdf-syntax-ns#"
   xmlns:svg="http://www.w3.org/2000/svg"
   xmlns="http://www.w3.org/2000/svg"
   viewBox="0 0 32 32"
   height="32"
   width="32"
   xml:space="preserve"
   id="svg2"
   version="1.1"><metadata
     id="metadata8"><rdf:RDF><cc:Work
         rdf:about=""><dc:format>image/svg+xml</dc:format><dc:type
           rdf:resource="http://purl.org/dc/dcmitype/StillImage" /></cc:Work></rdf:RDF></metadata><defs
     id="defs6"><clipPath
       id="clipPath18"
       clipPathUnits="userSpaceOnUse"><path
         id="path16"
         d="M 0,24 H 24 V 0 H 0 Z" /></clipPath><clipPath
       id="clipPath26"
       clipPathUnits="userSpaceOnUse"><path
         id="path24"
         d="M 0,24 H 24 V 0 H 0 Z" /></clipPath></defs><g
     transform="matrix(1.3333333,0,0,-1.3333333,0,32)"
     id="g10"><g
       id="g12"><g
         clip-path="url(#clipPath18)"
         id="g14"><g
           id="g20"><g
             id="g22" /><g
             id="g30"><g
               style="opacity:0"
               id="g28"
               clip-path="url(#clipPath26)" /></g></g><g
           transform="translate(17.835,17.291)"
           id="g32"><path
             id="path34"
             style="fill:#FFFFFF;fill-opacity:1;fill-rule:nonzero;stroke:none"
             d="m 0,0 h 0.001 0.164 v -2.249 l 4.763,2.75 -4.763,2.75 V 1 H 0.001 0 C -1.906,1 -3.708,0.17 -4.945,-1.278 l -6.706,-7.853 c -1.046,-1.224 -2.571,-1.928 -4.184,-1.928 l 0.001,-1 c 1.905,0 3.707,0.832 4.943,2.279 l 6.706,7.852 C -3.138,-0.702 -1.613,0 0,0 m 4.928,-11.083 -4.763,2.75 v -2.249 H 0.001 0 c -1.612,0 -3.138,0.703 -4.184,1.928 l -1.229,1.439 -0.658,-0.77 1.126,-1.319 c 1.237,-1.448 3.04,-2.278 4.945,-2.278 h 0.001 0.164 v -2.251 z m -16.579,9.632 1.635,-1.915 0.658,0.77 -1.533,1.794 c -1.236,1.448 -3.038,2.279 -4.943,2.279 l -0.001,-1 c 1.613,0 3.138,-0.704 4.184,-1.928" /></g></g></g></g></svg>
