<?xml version="1.0" encoding="UTF-8" standalone="no"?>
<svg
   xmlns:dc="http://purl.org/dc/elements/1.1/"
   xmlns:cc="http://creativecommons.org/ns#"
   xmlns:rdf="http://www.w3.org/1999/02/22-rdf-syntax-ns#"
   xmlns:svg="http://www.w3.org/2000/svg"
   xmlns="http://www.w3.org/2000/svg"
   viewBox="0 0 32 32"
   height="32"
   width="32"
   xml:space="preserve"
   id="svg2"
   version="1.1"><metadata
     id="metadata8"><rdf:RDF><cc:Work
         rdf:about=""><dc:format>image/svg+xml</dc:format><dc:type
           rdf:resource="http://purl.org/dc/dcmitype/StillImage" /></cc:Work></rdf:RDF></metadata><defs
     id="defs6"><clipPath
       id="clipPath18"
       clipPathUnits="userSpaceOnUse"><path
         id="path16"
         d="M 0,24 H 24 V 0 H 0 Z" /></clipPath><clipPath
       id="clipPath26"
       clipPathUnits="userSpaceOnUse"><path
         id="path24"
         d="M 0,24 H 24 V 0 H 0 Z" /></clipPath></defs><g
     transform="matrix(1.3333333,0,0,-1.3333333,0,32)"
     id="g10"><g
       id="g12"><g
         clip-path="url(#clipPath18)"
         id="g14"><g
           id="g20"><g
             id="g22" /><g
             id="g30"><g
               style="opacity:0"
               id="g28"
               clip-path="url(#clipPath26)" /></g></g><g
           transform="translate(22.0706,15.4633)"
           id="g32"><path
             id="path34"
             style="fill:#FFF;fill-opacity:1;fill-rule:nonzero;stroke:none"
             d="m 0,0 -0.862,-0.497 c 0.501,-0.876 0.791,-1.887 0.791,-2.966 0,-3.308 -2.691,-6 -6,-6 h -7.999 v 2 l -4.763,-2.75 4.763,-2.75 v 2.5 h 7.999 c 3.85,0 7,3.15 7,7 C 0.929,-2.204 0.588,-1.023 0,0 m -14.071,2.537 h 8 v -2 l 4.763,2.75 -4.763,2.75 v -2.5 h -8 c -3.85,0 -7,-3.15 -7,-7 0,-1.259 0.342,-2.44 0.93,-3.464 l 0.862,0.498 c -0.501,0.876 -0.792,1.887 -0.792,2.966 0,3.309 2.692,6 6,6" /></g></g></g></g></svg>
